<svg width="126" height="86" viewBox="0 0 126 86" fill="none" xmlns="http://www.w3.org/2000/svg">
<path d="M92.0322 81.2609H33.9677C21.9718 81.2609 12.2607 74.0235 12.2607 65.0522V65.0271C12.2607 63.4439 13.9745 62.1372 16.125 62.1372H109.909C112.026 62.1372 113.773 63.4439 113.773 65.0522V65.0271C113.739 73.9984 104.028 81.2609 92.0322 81.2609Z" fill="#EAA772"/>
<g opacity="0.25">
<path opacity="0.25" d="M34.1021 65.0522C34.1021 63.4439 35.8158 62.1372 37.9664 62.1372H16.125C14.0081 62.1372 12.2607 63.4439 12.2607 65.0271V65.0522C12.2607 74.0235 21.9718 81.2609 33.9677 81.2609H55.8091C43.8132 81.2609 34.1021 74.0235 34.1021 65.0522Z" fill="#EAA772"/>
<path opacity="0.25" d="M12.328 65.2031H113.639C113.269 63.6953 111.723 62.5393 109.875 62.5393H16.125C14.2769 62.5142 12.7312 63.6702 12.328 65.2031Z" fill="#EAA772"/>
</g>
<path d="M92.0323 81.2609H33.9677C21.9718 81.2609 12.2607 74.0235 12.2607 65.0522V65.0271C12.2607 63.4439 13.9745 62.1372 16.125 62.1372H109.909C112.026 62.1372 113.773 63.4439 113.773 65.0522V65.0271C113.739 73.9984 104.028 81.2609 92.0323 81.2609Z" stroke="#442F2F" stroke-width="8" stroke-miterlimit="10" stroke-linecap="round" stroke-linejoin="round"/>
<path d="M67.0676 4.91705H58.7007C32.9951 4.91705 12.2961 15.6474 12.2961 28.5892V28.564C12.2961 31.3534 16.6308 33.5648 22.1416 33.5648H103.66C109.171 33.5648 113.775 31.3534 113.775 28.564C113.741 15.6474 92.7733 4.91705 67.0676 4.91705Z" fill="#EAA772"/>
<path d="M67.0676 4.91705H58.7007C32.9951 4.91705 12.2961 15.6474 12.2961 28.5892V28.564C12.2961 31.3534 16.6308 33.5648 22.1416 33.5648H103.66C109.171 33.5648 113.775 31.3534 113.775 28.564C113.741 15.6474 92.7733 4.91705 67.0676 4.91705Z" fill="#EAA772"/>
<g opacity="0.3">
<path opacity="0.3" d="M73.8871 5.1927C71.6693 5.0168 69.3844 4.94141 67.0322 4.94141H58.6653C32.9597 4.94141 12.2607 15.6718 12.2607 28.6135C12.2607 31.3778 16.5954 33.5892 22.1062 33.5892H35.3118V29.3423C38.4368 16.4759 52.1465 6.85126 73.8871 5.1927Z" fill="#EAA772"/>
</g>
<path d="M67.0676 4.91705H58.7007C32.9951 4.91705 12.2961 15.6474 12.2961 28.5892V28.564C12.2961 31.3534 16.6308 33.5648 22.1416 33.5648H103.66C109.171 33.5648 113.775 31.3534 113.775 28.564C113.741 15.6474 92.7733 4.91705 67.0676 4.91705Z" stroke="#442F2F" stroke-width="8" stroke-miterlimit="10" stroke-linecap="round" stroke-linejoin="round"/>
<path d="M115.791 53.9449C115.791 58.4683 110.885 62.1372 104.836 62.1372H21.2006C15.1522 62.1372 10.2463 58.4683 10.2463 53.9449C10.2463 49.4216 15.1522 45.7527 21.2006 45.7527H104.836C110.885 45.7527 115.791 49.4216 115.791 53.9449Z" fill="#5B3E40"/>
<g opacity="0.6">
<path opacity="0.6" d="M15.9234 56.483C16.3503 56.483 16.6963 56.2242 16.6963 55.905C16.6963 55.5858 16.3503 55.327 15.9234 55.327C15.4966 55.327 15.1506 55.5858 15.1506 55.905C15.1506 56.2242 15.4966 56.483 15.9234 56.483Z" fill="#442F2F"/>
<path opacity="0.6" d="M21.1317 59.0714C21.5586 59.0714 21.9046 58.8126 21.9046 58.4934C21.9046 58.1742 21.5586 57.9154 21.1317 57.9154C20.7049 57.9154 20.3589 58.1742 20.3589 58.4934C20.3589 58.8126 20.7049 59.0714 21.1317 59.0714Z" fill="#442F2F"/>
<path opacity="0.6" d="M17.8387 59.0714C18.2655 59.0714 18.6116 58.8126 18.6116 58.4934C18.6116 58.1742 18.2655 57.9154 17.8387 57.9154C17.4119 57.9154 17.0659 58.1742 17.0659 58.4934C17.0659 58.8126 17.4119 59.0714 17.8387 59.0714Z" fill="#442F2F"/>
<path opacity="0.6" d="M15.9234 54.4978C16.3503 54.4978 16.6963 54.239 16.6963 53.9198C16.6963 53.6006 16.3503 53.3418 15.9234 53.3418C15.4966 53.3418 15.1506 53.6006 15.1506 53.9198C15.1506 54.239 15.4966 54.4978 15.9234 54.4978Z" fill="#442F2F"/>
<path opacity="0.6" d="M20.3589 55.905C20.7857 55.905 21.1317 55.6462 21.1317 55.327C21.1317 55.0078 20.7857 54.749 20.3589 54.749C19.932 54.749 19.586 55.0078 19.586 55.327C19.586 55.6462 19.932 55.905 20.3589 55.905Z" fill="#442F2F"/>
<path opacity="0.6" d="M32.4557 57.639C32.8825 57.639 33.2285 57.3802 33.2285 57.061C33.2285 56.7418 32.8825 56.483 32.4557 56.483C32.0289 56.483 31.6828 56.7418 31.6828 57.061C31.6828 57.3802 32.0289 57.639 32.4557 57.639Z" fill="#442F2F"/>
<path opacity="0.6" d="M46.6693 56.483C47.0962 56.483 47.4422 56.2242 47.4422 55.905C47.4422 55.5858 47.0962 55.327 46.6693 55.327C46.2425 55.327 45.8965 55.5858 45.8965 55.905C45.8965 56.2242 46.2425 56.483 46.6693 56.483Z" fill="#442F2F"/>
<path opacity="0.6" d="M100.5 59.0714C100.927 59.0714 101.273 58.8126 101.273 58.4934C101.273 58.1742 100.927 57.9154 100.5 57.9154C100.073 57.9154 99.7272 58.1742 99.7272 58.4934C99.7272 58.8126 100.073 59.0714 100.5 59.0714Z" fill="#442F2F"/>
<path opacity="0.6" d="M95.7286 59.0714C96.1555 59.0714 96.5015 58.8126 96.5015 58.4934C96.5015 58.1742 96.1555 57.9154 95.7286 57.9154C95.3018 57.9154 94.9558 58.1742 94.9558 58.4934C94.9558 58.8126 95.3018 59.0714 95.7286 59.0714Z" fill="#442F2F"/>
<path opacity="0.6" d="M92.7716 59.0714C93.1984 59.0714 93.5444 58.8126 93.5444 58.4934C93.5444 58.1742 93.1984 57.9154 92.7716 57.9154C92.3447 57.9154 91.9987 58.1742 91.9987 58.4934C91.9987 58.8126 92.3447 59.0714 92.7716 59.0714Z" fill="#442F2F"/>
<path opacity="0.6" d="M94.3173 57.639C94.7441 57.639 95.0901 57.3802 95.0901 57.061C95.0901 56.7418 94.7441 56.483 94.3173 56.483C93.8904 56.483 93.5444 56.7418 93.5444 57.061C93.5444 57.3802 93.8904 57.639 94.3173 57.639Z" fill="#442F2F"/>
<path opacity="0.6" d="M108.531 54.4978C108.958 54.4978 109.304 54.239 109.304 53.9198C109.304 53.6006 108.958 53.3418 108.531 53.3418C108.104 53.3418 107.758 53.6006 107.758 53.9198C107.758 54.239 108.104 54.4978 108.531 54.4978Z" fill="#442F2F"/>
<path opacity="0.6" d="M107.758 57.639C108.185 57.639 108.531 57.3802 108.531 57.061C108.531 56.7418 108.185 56.483 107.758 56.483C107.331 56.483 106.985 56.7418 106.985 57.061C106.985 57.3802 107.331 57.639 107.758 57.639Z" fill="#442F2F"/>
<path opacity="0.6" d="M101.273 53.9198C101.7 53.9198 102.046 53.661 102.046 53.3418C102.046 53.0226 101.7 52.7638 101.273 52.7638C100.846 52.7638 100.5 53.0226 100.5 53.3418C100.5 53.661 100.846 53.9198 101.273 53.9198Z" fill="#442F2F"/>
<path opacity="0.6" d="M73.6184 59.0714C74.0452 59.0714 74.3912 58.8126 74.3912 58.4934C74.3912 58.1742 74.0452 57.9154 73.6184 57.9154C73.1915 57.9154 72.8455 58.1742 72.8455 58.4934C72.8455 58.8126 73.1915 59.0714 73.6184 59.0714Z" fill="#442F2F"/>
<path opacity="0.6" d="M66.7299 59.0714C67.1568 59.0714 67.5028 58.8126 67.5028 58.4934C67.5028 58.1742 67.1568 57.9154 66.7299 57.9154C66.3031 57.9154 65.9571 58.1742 65.9571 58.4934C65.9571 58.8126 66.3031 59.0714 66.7299 59.0714Z" fill="#442F2F"/>
<path opacity="0.6" d="M69.4517 59.0714C69.8785 59.0714 70.2246 58.8126 70.2246 58.4934C70.2246 58.1742 69.8785 57.9154 69.4517 57.9154C69.0249 57.9154 68.6789 58.1742 68.6789 58.4934C68.6789 58.8126 69.0249 59.0714 69.4517 59.0714Z" fill="#442F2F"/>
<path opacity="0.6" d="M59.1022 59.0714C59.5291 59.0714 59.8751 58.8126 59.8751 58.4934C59.8751 58.1742 59.5291 57.9154 59.1022 57.9154C58.6754 57.9154 58.3294 58.1742 58.3294 58.4934C58.3294 58.8126 58.6754 59.0714 59.1022 59.0714Z" fill="#442F2F"/>
<path opacity="0.6" d="M55.8092 58.1917C56.236 58.1917 56.582 57.933 56.582 57.6138C56.582 57.2946 56.236 57.0358 55.8092 57.0358C55.3824 57.0358 55.0363 57.2946 55.0363 57.6138C55.0363 57.933 55.3824 58.1917 55.8092 58.1917Z" fill="#442F2F"/>
<path opacity="0.6" d="M45.5941 58.7697C46.021 58.7697 46.367 58.511 46.367 58.1917C46.367 57.8725 46.021 57.6138 45.5941 57.6138C45.1673 57.6138 44.8213 57.8725 44.8213 58.1917C44.8213 58.511 45.1673 58.7697 45.5941 58.7697Z" fill="#442F2F"/>
</g>
<g opacity="0.15">
<path opacity="0.15" d="M31.5148 57.7144V50.1755C31.5148 47.7379 34.1693 45.7527 37.4287 45.7527H21.1653C15.1169 45.7527 10.211 49.4216 10.211 53.9449C10.211 58.4683 15.1169 62.1372 21.1653 62.1372H37.4623C34.1693 62.1372 31.5148 60.152 31.5148 57.7144Z" fill="#5B3E40"/>
<path opacity="0.15" d="M104.8 47.0091H21.1981C15.1498 47.0091 10.2438 50.678 10.2438 55.2014C10.2438 55.327 10.2438 55.4275 10.2438 55.5532C12.6968 55.1008 15.9562 54.6736 19.182 54.6736C22.475 54.6736 23.9871 55.1008 25.768 55.6034C27.6498 56.1312 29.7667 56.7091 33.7653 56.7091C37.764 56.7091 39.8809 56.106 41.7626 55.6034C43.5436 55.1008 45.0557 54.6736 48.3487 54.6736C51.6417 54.6736 53.1538 55.1008 54.9347 55.6034C56.8164 56.1312 58.9333 56.7091 62.932 56.7091C66.9307 56.7091 69.0476 56.106 70.9293 55.5783C72.7102 55.0757 74.2223 54.6485 77.5153 54.6485C80.8083 54.6485 82.3204 55.0757 84.1014 55.5783C85.9831 56.106 88.1 56.7091 92.0987 56.7091C96.0973 56.7091 98.2143 56.106 100.096 55.5783C101.877 55.0757 103.389 54.6485 106.682 54.6485C109.941 54.6485 111.454 55.0757 113.201 55.5783C113.94 55.7793 114.78 56.0306 115.755 56.2065C115.822 55.8799 115.855 55.528 115.855 55.1762C115.788 50.678 110.882 47.0091 104.8 47.0091Z" fill="#5B3E40"/>
</g>
<path d="M115.791 53.9449C115.791 58.4683 110.885 62.1372 104.836 62.1372H21.2006C15.1522 62.1372 10.2463 58.4683 10.2463 53.9449C10.2463 49.4216 15.1522 45.7527 21.2006 45.7527H104.836C110.885 45.7527 115.791 49.4216 115.791 53.9449Z" stroke="#442F2F" stroke-width="8" stroke-miterlimit="10" stroke-linecap="round" stroke-linejoin="round"/>
<path d="M113.739 43.9169C113.739 44.9221 112.664 45.7262 111.32 45.7262H14.6801C13.336 45.7262 12.2607 44.9221 12.2607 43.9169V39.67C12.2607 38.6648 13.336 37.8607 14.6801 37.8607H111.286C112.63 37.8607 113.706 38.6648 113.706 39.67V43.9169H113.739Z" fill="#D83634"/>
<path d="M113.739 43.9169C113.739 44.9221 112.664 45.7262 111.32 45.7262H14.6801C13.336 45.7262 12.2607 44.9221 12.2607 43.9169V39.67C12.2607 38.6648 13.336 37.8607 14.6801 37.8607H111.286C112.63 37.8607 113.706 38.6648 113.706 39.67V43.9169H113.739Z" fill="#D83634"/>
<path opacity="0.3" d="M30.7083 43.9169V39.67C30.7083 38.6648 31.7836 37.8607 33.1277 37.8607H14.6801C13.336 37.8607 12.2607 38.6648 12.2607 39.67V43.9169C12.2607 44.9221 13.336 45.7262 14.6801 45.7262H33.1277C31.7836 45.7514 30.7083 44.9221 30.7083 43.9169Z" fill="#D83634"/>
<path opacity="0.2" d="M77.5834 37.8369H69.9557V45.7276H77.5834V37.8369Z" fill="white"/>
<path opacity="0.2" d="M82.1533 37.8369H79.9356V45.7276H82.1533V37.8369Z" fill="white"/>
<path d="M113.739 43.9169C113.739 44.9221 112.664 45.7262 111.32 45.7262H14.6801C13.336 45.7262 12.2607 44.9221 12.2607 43.9169V39.67C12.2607 38.6648 13.336 37.8607 14.6801 37.8607H111.286C112.63 37.8607 113.706 38.6648 113.706 39.67V43.9169H113.739Z" stroke="#442F2F" stroke-width="8" stroke-miterlimit="10" stroke-linecap="round" stroke-linejoin="round"/>
<path d="M4.69968 43.3676C8.49672 37.4621 17.9725 33.5922 28.5236 33.5922H97.5088C108.06 33.5922 117.502 37.4873 121.333 43.3676C114.041 43.3676 114.041 38.5176 106.749 38.5176C99.4577 38.5176 99.4577 43.3676 92.1661 43.3676C84.8744 43.3676 84.8744 38.5176 77.5827 38.5176C70.2911 38.5176 70.2911 43.3676 62.9994 43.3676C55.7077 43.3676 55.7077 38.5176 48.4161 38.5176C41.1244 38.5176 41.1244 43.3676 33.8327 43.3676C26.5411 43.3676 26.5411 38.5176 19.2494 38.5176C11.9577 38.5176 11.9913 43.3676 4.69968 43.3676Z" fill="#8DC838"/>
<path d="M108.061 35.0224C104.028 33.4895 102.483 33.5649 97.4759 33.5649H35.7823H34.1022H28.4906C17.9396 33.5649 8.49736 37.46 4.66672 43.3403C11.9584 43.3403 11.9584 38.4903 19.2501 38.4903C23.9207 38.4903 27.6506 41.4053 30.1707 42.8377L30.9772 42.1592C32.4893 40.8776 33.6654 39.3949 34.4718 37.8118C35.3455 36.1532 37.4624 35.0475 39.8482 35.0475L108.061 35.0224Z" fill="#73B727"/>
<path d="M4.69968 43.3676C8.49672 37.4621 17.9725 33.5922 28.5236 33.5922H97.5088C108.06 33.5922 117.502 37.4873 121.333 43.3676C114.041 43.3676 114.041 38.5176 106.749 38.5176C99.4577 38.5176 99.4577 43.3676 92.1661 43.3676C84.8744 43.3676 84.8744 38.5176 77.5828 38.5176C70.2911 38.5176 70.2911 43.3676 62.9994 43.3676C55.7077 43.3676 55.7077 38.5176 48.4161 38.5176C41.1244 38.5176 41.1244 43.3676 33.8327 43.3676C26.5411 43.3676 26.5411 38.5176 19.2494 38.5176C11.9577 38.5176 11.9913 43.3676 4.69968 43.3676Z" stroke="#442F2F" stroke-width="8" stroke-miterlimit="10" stroke-linecap="round" stroke-linejoin="round"/>
<path d="M5.40599 51.2561C5.06997 52.4121 6.81728 53.3921 8.59819 53.0403C11.3872 52.4875 15.285 51.8843 19.1829 51.8843C26.4745 51.8843 26.4745 53.9198 33.7662 53.9198C41.0579 53.9198 41.0579 51.8843 48.3495 51.8843C55.6412 51.8843 55.6412 53.9198 62.9329 53.9198C70.2245 53.9198 70.2245 51.8843 77.5162 51.8843C84.8079 51.8843 84.8079 53.9198 92.0995 53.9198C99.3912 53.9198 99.3912 51.8843 106.649 51.8843C112.53 51.8843 113.571 53.2162 117.671 53.7188C119.384 53.945 120.93 52.9649 120.594 51.8843L120.292 51.4069C118.108 47.9641 112.798 45.7025 106.918 45.7025H18.6788C12.8993 45.7527 7.69094 47.9139 5.40599 51.2561Z" fill="#FBB03B"/>
<path d="M115.419 47.511C113 46.4053 110.043 45.7519 106.884 45.7519H35.6144H33.1278H30.9773H18.6789C12.8993 45.7519 7.65736 47.913 5.40602 51.2804C5.07 52.4364 6.81731 53.4164 8.59822 53.0646C11.3872 52.5118 15.2851 51.9087 19.1829 51.9087C22.7447 51.9087 24.5592 52.3861 26.3402 52.8887L27.0122 52.4866C27.9531 51.9338 29.0283 50.9788 29.9356 50.0491C31.5149 48.4408 34.0351 47.511 36.6896 47.511H115.419Z" fill="#F99A29"/>
<path d="M5.40599 51.2561C5.06997 52.4121 6.81728 53.3921 8.59819 53.0403C11.3872 52.4875 15.285 51.8843 19.1829 51.8843C26.4745 51.8843 26.4745 53.9198 33.7662 53.9198C41.0579 53.9198 41.0579 51.8843 48.3495 51.8843C55.6412 51.8843 55.6412 53.9198 62.9329 53.9198C70.2245 53.9198 70.2245 51.8843 77.5162 51.8843C84.8079 51.8843 84.8079 53.9198 92.0995 53.9198C99.3912 53.9198 99.3912 51.8843 106.649 51.8843C112.53 51.8843 113.571 53.2162 117.671 53.7188C119.384 53.945 120.93 52.9649 120.594 51.8843L120.292 51.4069C118.108 47.9641 112.798 45.7025 106.918 45.7025H18.6788C12.8993 45.7527 7.69094 47.9139 5.40599 51.2561Z" stroke="#442F2F" stroke-width="8" stroke-miterlimit="10" stroke-linecap="round" stroke-linejoin="round"/>
<path d="M35.3119 73.9733C33.2285 73.9733 31.5148 72.7168 31.5148 71.1336V62.1372H39.0753V71.1336C39.1089 72.6917 37.3952 73.9733 35.3119 73.9733Z" stroke="#442F2F" stroke-width="8" stroke-miterlimit="10" stroke-linecap="round" stroke-linejoin="round"/>
<path d="M35.3119 73.9733C33.2285 73.9733 31.5148 72.7168 31.5148 71.1336V62.1372H39.0753V71.1336C39.1089 72.6917 37.3952 73.9733 35.3119 73.9733Z" fill="#D83634"/>
<path d="M48.2151 68.2436C46.535 68.2436 45.1573 67.2133 45.1573 65.9568V62.112H51.2393V65.9568C51.2729 67.2384 49.8952 68.2436 48.2151 68.2436Z" fill="#D83634"/>
<path d="M48.2151 68.2436C46.535 68.2436 45.1573 67.2133 45.1573 65.9568V62.112H51.2393V65.9568C51.2729 67.2384 49.8952 68.2436 48.2151 68.2436Z" stroke="#442F2F" stroke-width="8" stroke-miterlimit="10" stroke-linecap="round" stroke-linejoin="round"/>
<path d="M35.3119 73.9733C33.2285 73.9733 31.5148 72.7168 31.5148 71.1336V62.1372H39.0753V71.1336C39.1089 72.6917 37.3952 73.9733 35.3119 73.9733Z" stroke="#442F2F" stroke-width="8" stroke-miterlimit="10" stroke-linecap="round" stroke-linejoin="round"/>
<path d="M85.0768 75.6821C81.9518 75.6821 79.398 73.7722 79.398 71.4352V62.1372H90.7555V71.4352C90.7555 73.7974 88.2354 75.6821 85.0768 75.6821Z" fill="#D83634"/>
<path d="M85.0768 75.6821C81.9518 75.6821 79.398 73.7722 79.398 71.4352V62.1372H90.7555V71.4352C90.7555 73.7974 88.2354 75.6821 85.0768 75.6821Z" stroke="#442F2F" stroke-width="8" stroke-miterlimit="10" stroke-linecap="round" stroke-linejoin="round"/>
<path d="M26.8778 71.0582C27.5459 71.0582 28.0875 70.6532 28.0875 70.1536C28.0875 69.6539 27.5459 69.2489 26.8778 69.2489C26.2097 69.2489 25.6681 69.6539 25.6681 70.1536C25.6681 70.6532 26.2097 71.0582 26.8778 71.0582Z" fill="#442F2F"/>
<path d="M95.2918 76.1846C95.663 76.1846 95.9639 75.9596 95.9639 75.682C95.9639 75.4045 95.663 75.1794 95.2918 75.1794C94.9207 75.1794 94.6198 75.4045 94.6198 75.682C94.6198 75.9596 94.9207 76.1846 95.2918 76.1846Z" fill="#442F2F"/>
<path d="M61.6896 75.8077C61.968 75.8077 62.1936 75.6389 62.1936 75.4307C62.1936 75.2225 61.968 75.0538 61.6896 75.0538C61.4112 75.0538 61.1856 75.2225 61.1856 75.4307C61.1856 75.6389 61.4112 75.8077 61.6896 75.8077Z" fill="#442F2F"/>
<path d="M57.5566 70.3043C58.2804 70.3043 58.8671 69.8655 58.8671 69.3242C58.8671 68.783 58.2804 68.3442 57.5566 68.3442C56.8329 68.3442 56.2462 68.783 56.2462 69.3242C56.2462 69.8655 56.8329 70.3043 57.5566 70.3043Z" fill="#442F2F"/>
<path d="M48.7528 74.5261C49.0312 74.5261 49.2568 74.3573 49.2568 74.1492C49.2568 73.941 49.0312 73.7722 48.7528 73.7722C48.4744 73.7722 48.2488 73.941 48.2488 74.1492C48.2488 74.3573 48.4744 74.5261 48.7528 74.5261Z" fill="#442F2F"/>
<path d="M71.8711 73.2194C73.0031 73.2194 73.9208 72.5331 73.9208 71.6865C73.9208 70.8399 73.0031 70.1536 71.8711 70.1536C70.7391 70.1536 69.8214 70.8399 69.8214 71.6865C69.8214 72.5331 70.7391 73.2194 71.8711 73.2194Z" fill="#442F2F"/>
<path d="M96.8711 70.4551C97.3907 70.4551 97.8119 70.1401 97.8119 69.7515C97.8119 69.3629 97.3907 69.0479 96.8711 69.0479C96.3515 69.0479 95.9302 69.3629 95.9302 69.7515C95.9302 70.1401 96.3515 70.4551 96.8711 70.4551Z" fill="#442F2F"/>
<path d="M66.1587 68.7462C66.5485 68.7462 66.8644 68.51 66.8644 68.2185C66.8644 67.9271 66.5485 67.6908 66.1587 67.6908C65.769 67.6908 65.4531 67.9271 65.4531 68.2185C65.4531 68.51 65.769 68.7462 66.1587 68.7462Z" fill="#442F2F"/>
<path d="M38.7729 16.8537C39.4966 16.8537 40.0833 16.4149 40.0833 15.8736C40.0833 15.3323 39.4966 14.8936 38.7729 14.8936C38.0491 14.8936 37.4624 15.3323 37.4624 15.8736C37.4624 16.4149 38.0491 16.8537 38.7729 16.8537Z" fill="#442F2F"/>
<path d="M58.867 20.6231C59.5908 20.6231 60.1775 20.1843 60.1775 19.6431C60.1775 19.1018 59.5908 18.663 58.867 18.663C58.1433 18.663 57.5565 19.1018 57.5565 19.6431C57.5565 20.1843 58.1433 20.6231 58.867 20.6231Z" fill="#442F2F"/>
<path d="M66.4275 23.4879C66.7987 23.4879 67.0995 23.2628 67.0995 22.9853C67.0995 22.7077 66.7987 22.4827 66.4275 22.4827C66.0563 22.4827 65.7555 22.7077 65.7555 22.9853C65.7555 23.2628 66.0563 23.4879 66.4275 23.4879Z" fill="#442F2F"/>
<path d="M90.453 17.8086C91.0097 17.8086 91.4611 17.471 91.4611 17.0547C91.4611 16.6383 91.0097 16.3008 90.453 16.3008C89.8963 16.3008 89.4449 16.6383 89.4449 17.0547C89.4449 17.471 89.8963 17.8086 90.453 17.8086Z" fill="#442F2F"/>
<path d="M65.7555 12.5564C66.8875 12.5564 67.8052 11.8701 67.8052 11.0235C67.8052 10.1769 66.8875 9.4906 65.7555 9.4906C64.6234 9.4906 63.7057 10.1769 63.7057 11.0235C63.7057 11.8701 64.6234 12.5564 65.7555 12.5564Z" fill="#442F2F"/>
<path d="M81.4476 15.3207C82.3198 15.3207 83.0269 14.7919 83.0269 14.1396C83.0269 13.4873 82.3198 12.9586 81.4476 12.9586C80.5754 12.9586 79.8683 13.4873 79.8683 14.1396C79.8683 14.7919 80.5754 15.3207 81.4476 15.3207Z" fill="#442F2F"/>
<path d="M47.4423 20.5226C47.8877 20.5226 48.2487 20.2526 48.2487 19.9195C48.2487 19.5864 47.8877 19.3164 47.4423 19.3164C46.9969 19.3164 46.6358 19.5864 46.6358 19.9195C46.6358 20.2526 46.9969 20.5226 47.4423 20.5226Z" fill="#442F2F"/>
<path d="M71.871 18.0599C72.6133 18.0599 73.2151 17.6098 73.2151 17.0547C73.2151 16.4995 72.6133 16.0495 71.871 16.0495C71.1287 16.0495 70.5269 16.4995 70.5269 17.0547C70.5269 17.6098 71.1287 18.0599 71.871 18.0599Z" fill="#442F2F"/>
<path d="M56.3805 13.3355C56.6589 13.3355 56.8845 13.1667 56.8845 12.9585C56.8845 12.7504 56.6589 12.5816 56.3805 12.5816C56.1021 12.5816 55.8765 12.7504 55.8765 12.9585C55.8765 13.1667 56.1021 13.3355 56.3805 13.3355Z" fill="#442F2F"/>
<path d="M41.8643 24.0155C42.1427 24.0155 42.3683 23.8467 42.3683 23.6385C42.3683 23.4304 42.1427 23.2616 41.8643 23.2616C41.5859 23.2616 41.3603 23.4304 41.3603 23.6385C41.3603 23.8467 41.5859 24.0155 41.8643 24.0155Z" fill="#442F2F"/>
<path d="M96.535 18.2358C96.6835 18.2358 96.8038 18.1458 96.8038 18.0348C96.8038 17.9237 96.6835 17.8337 96.535 17.8337C96.3865 17.8337 96.2662 17.9237 96.2662 18.0348C96.2662 18.1458 96.3865 18.2358 96.535 18.2358Z" fill="#442F2F"/>
<path d="M48.2488 12.9335C48.5272 12.9335 48.7528 12.7647 48.7528 12.5565C48.7528 12.3483 48.5272 12.1796 48.2488 12.1796C47.9704 12.1796 47.7448 12.3483 47.7448 12.5565C47.7448 12.7647 47.9704 12.9335 48.2488 12.9335Z" fill="#442F2F"/>
<path d="M86.0175 23.488C86.2959 23.488 86.5215 23.3192 86.5215 23.111C86.5215 22.9028 86.2959 22.7341 86.0175 22.7341C85.7391 22.7341 85.5135 22.9028 85.5135 23.111C85.5135 23.3192 85.7391 23.488 86.0175 23.488Z" fill="#442F2F"/>
<path d="M78.0537 19.9445C78.2764 19.9445 78.4569 19.8095 78.4569 19.643C78.4569 19.4764 78.2764 19.3414 78.0537 19.3414C77.831 19.3414 77.6505 19.4764 77.6505 19.643C77.6505 19.8095 77.831 19.9445 78.0537 19.9445Z" fill="#442F2F"/>
<path d="M15.2178 9.4906L17.906 11.0235" stroke="#F7931E" stroke-width="4" stroke-miterlimit="10" stroke-linecap="round" stroke-linejoin="round"/>
<path d="M18.2419 6.34943L20.7621 9.23933" stroke="#F7931E" stroke-width="4" stroke-miterlimit="10" stroke-linecap="round" stroke-linejoin="round"/>
<path d="M23.8535 4.56519V8.03308" stroke="#F7931E" stroke-width="4" stroke-miterlimit="10" stroke-linecap="round" stroke-linejoin="round"/>
</svg>
