<svg width="229" height="246" viewBox="0 0 229 246" fill="none" xmlns="http://www.w3.org/2000/svg">
<g id="MainIcon">
<rect width="229" height="246" fill="white"/>
<g id="Group">
<path id="Blob" fill-rule="evenodd" clip-rule="evenodd" d="M125.541 21.3201C179.078 21.3201 190.349 101.023 190.568 101.679C190.794 102.355 191.007 103.05 191.212 103.725C191.63 105.096 192.167 106.416 192.585 107.778C192.84 108.609 193.31 109.297 193.625 110.081C194.235 111.58 194.983 113.011 195.858 114.351C196.219 114.882 196.502 115.468 196.699 116.091C196.837 116.567 197.295 116.694 197.492 117.114C197.812 117.794 198.238 118.416 198.607 119.069C198.691 119.299 198.884 119.462 199.112 119.496L199.04 120.145C199.174 120.379 199.219 120.063 199.359 120.118C199.534 120.371 199.784 120.596 199.809 120.982C199.832 121.344 200.226 121.378 200.36 121.694C200.656 122.379 201.477 122.729 201.465 123.629C202.055 124.027 202.345 124.711 202.791 125.247C203.02 125.494 203.159 125.819 203.185 126.164L203.19 126.244C203.186 126.587 203.803 126.51 203.637 126.979C204.582 127.74 204.827 128.985 205.326 130.015C206.126 131.669 207.048 133.267 207.591 135.078C207.863 135.984 208.391 136.841 208.684 137.759C209.344 139.821 210.136 141.838 210.565 143.986C210.741 144.873 211.103 145.718 211.272 146.607L211.467 147.636C211.758 149.179 212.033 150.725 212.216 152.289C212.31 152.641 212.31 153.015 212.216 153.368C212.058 153.77 212.476 154.027 212.51 154.429C212.552 154.907 212.374 155.359 212.502 155.867C212.573 156.146 212.502 156.595 212.583 156.919C212.846 157.973 212.513 159.061 212.799 160.108C212.844 160.512 212.805 160.923 212.683 161.309C212.485 162.598 212.848 163.914 212.486 165.173C212.317 165.794 212.285 166.448 212.391 167.083L212.436 167.328C212.468 167.509 212.489 167.686 212.406 167.808C212.077 168.292 212.162 168.862 212.096 169.39L212.084 169.478C211.989 170.07 212.087 170.691 211.92 171.294C211.693 171.884 211.565 172.513 211.543 173.152C211.628 174.234 211.288 175.206 211.08 176.21C210.977 176.713 211.063 177.309 210.548 177.683C210.287 177.873 210.904 178.242 210.53 178.52L210.486 178.549C210.211 178.716 210.223 178.985 210.3 179.306C210.371 179.601 209.892 179.804 210.029 180.105C210.166 180.406 210.228 180.845 210.068 180.9C209.668 181.041 210.075 181.508 209.739 181.597C209.706 181.616 209.683 181.651 209.677 181.691C209.563 182.821 208.885 183.749 208.717 184.879C208.591 185.554 208.346 186.197 207.996 186.774C207.707 187.332 207.461 187.914 207.261 188.515C206.885 189.525 206.242 190.369 205.879 191.374C205.781 191.647 205.125 191.555 205.458 192.114C205.076 192.259 205.192 192.685 205.038 192.951C204.868 193.152 204.671 193.324 204.452 193.461C204.311 194.059 204.04 194.613 203.661 195.079C203 196.118 202.278 197.111 201.5 198.052L200.858 198.825C199.998 199.856 199.111 200.865 197.979 201.575C197.688 201.758 197.82 202.105 197.581 202.292C196.193 203.393 194.914 204.642 193.335 205.476C192.674 205.826 192.107 206.447 191.432 206.81C190.151 207.501 188.962 208.36 187.593 208.898L187.349 208.99C186.477 209.301 185.618 209.774 184.733 210.117C182.914 210.884 181.015 211.414 179.078 211.695L177.883 211.837C176.821 211.964 175.757 212.08 174.684 212.111C174.176 212.126 173.689 211.953 173.224 212.016C172.771 212.077 172.312 212.037 171.874 211.899C171.528 211.795 171.236 212.115 170.863 211.943C170.577 211.751 170.223 211.722 169.915 211.862L169.854 211.892C169.678 212.002 169.33 211.799 169.061 211.734C168.669 211.675 168.283 211.573 167.911 211.429C167.622 211.285 167.254 211.746 167.053 211.256C166.688 211.56 141.885 205.229 119.1 218.086C117.245 219.407 115.074 219.987 113.091 221.012C112.17 221.49 111.133 221.708 110.141 222.035L109.929 222.106C108.178 222.714 106.382 223.129 104.589 223.563C102.941 223.946 101.271 224.213 99.591 224.361C98.3828 224.478 97.169 224.532 95.9637 224.674C95.475 224.731 94.9958 224.361 94.5176 224.679C93.4431 224.365 92.315 224.746 91.2435 224.391C90.5308 224.618 89.8611 224.337 89.2061 224.129C88.7062 223.97 88.2351 224.301 87.7299 224.066C87.2701 223.809 86.755 223.686 86.2367 223.71C85.3764 223.851 84.6275 223.513 83.8438 223.333C82.0229 222.917 80.2085 222.466 78.4006 221.982C77.8085 221.823 77.1434 221.885 76.6361 221.398C76.1912 220.972 75.4889 221.239 75.0516 220.735C74.892 220.552 74.6884 220.907 74.4481 220.768C73.9793 220.498 73.3767 220.676 72.9387 220.188C72.6142 219.827 72.0017 220.072 71.6424 219.636L71.5951 219.572C71.3831 219.255 70.8235 220.001 70.658 219.297C69.9894 219.241 69.4353 218.85 68.8399 218.582C68.3466 218.36 67.7645 218.485 67.3194 218.024C66.9401 217.631 66.2233 217.92 65.8948 217.331C65.091 217.323 64.4982 216.677 63.7322 216.507C63.1507 216.343 62.5924 216.096 62.0721 215.773C61.2472 215.318 60.4096 214.888 59.5658 214.481C59.263 214.33 58.9683 214.161 58.6829 213.975C58.523 213.874 58.4841 213.652 58.2555 213.598C56.8086 213.253 55.5916 212.347 54.3557 211.555C53.6509 211.164 52.9765 210.713 52.339 210.206L52.1279 210.035C51.9413 209.863 51.5538 209.778 51.3898 209.538C50.9324 208.871 50.2483 208.545 49.628 208.144L49.5253 208.076C49.1758 207.855 48.8582 207.581 48.5823 207.262C48.5301 207.201 48.5088 207.069 48.4534 207.054C47.4237 206.781 46.8093 205.867 46.022 205.229C45.3449 204.68 44.7526 204.011 44.0858 203.452L43.8319 203.247C42.2714 202.048 25.1966 181.865 23.2618 178.382L22.7081 177.385C22.1552 176.386 21.6087 175.38 21.1054 174.355L20.6769 173.481C20.2491 172.606 19.8279 171.724 19.4556 170.828L18.9575 169.631C17.9636 167.235 16.9911 164.828 16.1622 162.355C15.4231 160.148 14.8112 157.905 14.1934 155.661C13.7977 154.219 13.4634 152.772 13.1809 151.303C12.7297 148.957 12.3273 146.6 11.9737 144.235C11.644 142.007 11.766 139.747 11.3256 137.545C11.6141 136.192 11.0837 134.82 11.4131 133.469C11.1688 132.802 11.3836 132.11 11.4065 131.452C11.4301 130.774 11.2883 130.063 11.5407 129.375C11.6563 129.062 11.3891 128.687 11.5338 128.305C11.6928 127.988 11.7111 127.611 11.5839 127.277C12.0129 127.065 11.5015 126.739 11.6797 126.437C11.8718 126.11 11.9566 125.723 11.9208 125.338C11.7959 124.476 12.258 123.68 12.1769 122.902C12.0923 122.105 12.4583 121.431 12.4572 120.717L12.4524 120.583C12.3893 119.646 13.0127 118.941 13.0335 118.054C13.0354 117.977 13.2061 117.905 13.2996 117.828C13.2696 117.629 13.0644 117.674 12.9188 117.519C13.1512 117.302 13.3545 117.052 13.523 116.776C13.6506 116.397 13.7412 116.004 13.7934 115.605L13.2024 114.786C13.4205 114.318 13.3444 113.892 13.6356 113.524C13.7623 113.364 13.6917 112.873 13.7073 112.535C13.7279 112.09 14.2601 111.825 14.1317 111.473C14.0327 111.069 14.0648 110.641 14.2227 110.259C14.9841 106.654 15.7596 103.051 16.5492 99.4527C16.6323 99.0669 16.56 98.5817 17.0019 98.3558C16.5191 97.8203 17.2774 97.6334 17.2891 97.2088C17.3507 96.812 17.493 96.4347 17.706 96.1036C18.0076 95.484 18.0354 94.7151 18.2072 94.0169C18.2524 93.5234 18.4264 93.0535 18.7093 92.6612C19.0035 92.3339 18.9611 91.7641 19.1826 91.3046C19.4955 90.7494 19.738 90.152 19.9037 89.5282C19.9536 89.0798 20.12 88.6556 20.3838 88.3037C20.6181 88.0259 20.4257 87.4505 20.8811 87.2409C21.0088 86.4345 21.457 85.7869 21.7888 85.0803L21.8496 84.9471C22.6647 83.129 23.5808 81.3649 24.593 79.6645C25.4339 78.2334 26.2522 76.787 27.1059 75.3649C27.3837 74.9059 27.679 74.4484 27.9845 74.0126C29.0455 72.4098 30.1884 70.871 31.4079 69.4035C32.5232 68.1339 33.5863 66.8072 34.7573 65.5864C35.3799 64.9369 35.8893 64.1395 36.4937 63.4496C37.918 61.8213 39.3807 60.2371 40.919 58.7335C42.2182 57.3547 43.6389 56.1143 45.1613 55.0295C45.5751 54.7592 45.9155 54.3627 46.315 54.0634C46.8 53.7764 47.2654 53.4529 47.7077 53.0951C48.2223 52.5754 48.8536 52.2447 49.3733 51.7631C49.7767 51.3895 50.4221 51.6025 50.7108 50.9304C50.9213 50.4413 51.709 50.6205 51.9743 50.0491C52.7014 50.0232 53.041 49.2668 53.7014 49.0182L53.7894 48.9887C54.4852 48.7848 55.079 48.1815 55.7173 47.7538C56.333 47.2854 56.9772 46.8619 57.6456 46.4858C58.9006 45.8788 59.9837 44.9538 61.2103 44.3268C62.3799 43.7297 63.4324 42.8557 64.708 42.5229C65.0094 42.4445 64.9532 42.159 65.1606 42.0372C65.3764 41.9097 65.6128 41.9942 65.8077 41.8472C66.6144 41.2819 72.0035 21.3201 125.541 21.3201Z" fill="#8C0000"/>
<path id="Shape" fill-rule="evenodd" clip-rule="evenodd" d="M65.1501 64.1074C63.3593 65.1927 60.7371 63.8082 60.4431 61.6221C61.5853 61.5566 62.8063 61.4609 63.7092 60.7066C64.6122 59.9523 64.9283 58.282 64.0232 57.5308C56.6542 56.5586 49.4858 53.869 43.1558 49.7014C47.4781 48.3024 51.1972 45.3512 55.257 43.2308C59.3168 41.1104 64.2272 39.8564 68.2762 42.0005C72.252 44.1058 76.8289 41.4203 80.9777 39.7439C88.192 36.8289 96.4645 37.0733 103.519 40.4098C108.665 42.8441 117.386 38.8929 122.946 37.9867C132.028 36.5065 140.893 43.3441 150.013 42.16C149.034 42.8549 148.056 43.5498 147.078 44.2446C148.041 44.15 149.01 44.1118 149.977 44.1301C142.409 48.0205 134.841 51.9108 127.273 55.8012C129.19 56.6343 131.107 57.4674 133.025 58.3004C132.574 59.8526 130.958 60.9008 129.47 60.607C130.667 61.631 131.865 62.655 133.063 63.679C131.785 64.6545 130.166 65.1027 128.608 64.9129C130.268 66.0639 131.637 67.6923 132.536 69.5823C136.489 68.1675 140.819 67.9933 144.86 69.0865C141.209 69.6007 137.559 70.1149 133.908 70.629C134.459 72.2416 135.01 73.8541 135.562 75.4666C140.331 74.294 145.4 74.5606 150.04 76.228C145.439 76.3538 140.838 76.4796 136.236 76.6054C136.129 83.1629 133.09 89.8502 127.754 93.0369C122.418 96.2235 111.755 99.057 108.223 89.7785C105.519 91.6849 105.71 96.2673 107.638 99.057C109.566 101.847 112.629 103.391 115.399 105.184C124.6 111.141 131.54 121.006 134.363 132.142C137.186 143.277 135.861 155.56 130.742 165.706C137.644 166.859 144.057 171.078 148.149 177.158C156.961 172.754 161.842 162.703 168.592 155.191C176.271 146.645 186.871 141.198 197.883 140.138C204.399 139.512 211.829 140.861 215.63 146.581C220.57 154.015 216.015 165.574 208.13 168.992C201.879 171.701 194.829 170.338 188.106 170.85C174.586 171.879 162.716 180.443 151.568 188.724C151.113 191.406 152.026 194.308 153.901 196.144C157.889 191.717 162.919 188.381 168.391 186.535C170.413 185.853 173.445 186.031 173.67 188.295C173.755 189.152 173.335 189.965 172.91 190.697C169.262 196.979 164.118 202.25 158.104 205.868C154.93 207.778 151.382 209.258 147.75 209.039C144.117 208.821 140.418 206.568 139.184 202.892C138.612 201.188 138.55 199.216 137.468 197.827C135.636 195.479 132.117 196.182 129.549 197.516C126.981 198.85 124.244 200.664 121.488 199.872C114.6 197.893 107.431 197.045 100.307 197.365C91.2342 197.773 81.9898 200.042 73.1995 197.594C70.2631 196.777 66.977 195.487 64.3756 197.163C59.249 200.467 62.7069 211.043 57.4475 214.096C55.5845 215.178 53.3014 214.779 51.2462 214.231C42.1637 211.809 33.6447 206.987 26.6503 200.308C25.9762 199.665 25.2817 198.942 25.0928 197.995C24.526 195.153 28.4304 193.971 31.0909 194.497C35.6102 195.39 39.9325 197.414 43.6183 200.362C44.9103 201.396 46.8762 200.19 47.4236 198.563C47.971 196.935 47.5943 195.143 47.3807 193.428C46.0314 182.595 52.358 171.205 61.8738 167.336C56.1125 158.305 53.9218 146.733 55.9416 136.001C57.9614 125.27 64.165 115.521 72.74 109.603C76.1655 107.239 80.1012 105.306 82.2844 101.614C84.4675 97.9218 83.5093 91.7279 79.5156 90.8768C75.7527 95.2546 69.6321 97.1063 64.2955 95.4814C58.9588 93.8565 54.653 88.8302 53.5882 82.9823C50.0461 84.2673 46.504 85.5524 42.9619 86.8374C46.1058 84.2346 49.829 82.445 53.7306 81.6613C54.1051 79.9184 54.4795 78.1755 54.854 76.4326C48.0952 75.9642 41.2412 77.1591 34.9672 79.8995C38.828 76.7777 43.7402 75.1914 48.5634 75.5087C53.4692 75.8315 58.4561 73.253 61.2815 68.9327C59.5137 68.2651 57.925 67.0599 56.7481 65.4936C58.5509 64.4424 60.7344 64.1699 62.7135 64.7493M99.8225 178.417C99.5008 178.754 99.1547 179.153 99.1774 179.635C99.2 180.117 99.8728 180.476 100.105 180.063C101.371 177.81 103.574 176.189 105.988 175.735C108.402 175.281 110.987 176.002 112.891 177.659C113.555 178.238 114.148 178.929 114.907 179.352C115.18 179.504 115.648 179.508 115.659 179.178C115.663 179.069 115.605 178.971 115.548 178.881C114.181 176.716 112.137 175.054 109.826 174.229C107.8 173.506 105.453 173.461 103.641 174.673C102.983 175.113 102.422 175.699 101.866 176.28C101.185 176.993 100.504 177.705 99.8225 178.417ZM89.9987 174.478C87.376 174.106 84.5523 175.051 82.8058 177.186C82.4979 177.562 82.2181 177.986 82.1122 178.474C82.0063 178.961 82.1059 179.526 82.4577 179.855C83.8087 177.6 86.2095 176.113 88.7028 175.987C91.1962 175.86 93.7167 177.098 95.2592 179.206C95.5005 179.536 95.7306 179.896 96.073 180.097C96.4153 180.299 96.9137 180.273 97.1221 179.918C97.371 179.495 97.07 178.953 96.763 178.577C95.0203 176.438 92.6214 174.851 89.9987 174.478ZM108.499 171.594C108.458 172.07 109.044 172.367 109.465 172.211C109.886 172.055 110.165 171.638 110.447 171.268C112.792 168.188 117.256 167.26 120.501 169.178C120.927 168.792 120.951 168.051 120.666 167.537C120.382 167.022 119.862 166.707 119.331 166.524C118.181 166.13 116.933 166.264 115.751 166.521C112.951 167.13 110.123 168.555 108.652 171.185C108.581 171.312 108.511 171.446 108.499 171.594ZM97.4931 181.588C96.3427 181.674 95.2166 182.001 94.1396 182.444C92.651 183.056 91.1854 183.948 90.314 185.381C91.5918 185.77 92.8168 184.746 93.9841 184.066C96.6026 182.539 99.9992 182.697 102.485 184.461C103.265 185.014 104.268 185.729 105.028 185.145C103.249 182.749 100.34 181.376 97.4931 181.588ZM102.22 180.815C103.092 180.327 103.79 179.534 104.656 179.031C105.848 178.338 107.333 178.258 108.584 178.819C109.263 179.124 109.864 179.601 110.533 179.93C111.202 180.259 111.999 180.43 112.666 180.095C112.74 180.057 112.816 180.008 112.848 179.927C112.898 179.796 112.808 179.654 112.721 179.546C111.229 177.717 108.892 176.726 106.639 176.967C104.386 177.209 102.277 178.677 101.151 180.787C101.386 181.119 101.875 181.008 102.22 180.815ZM84.7432 180.903C85.2107 180.617 85.5765 180.176 86.004 179.825C86.8588 179.124 87.9724 178.801 89.0408 178.934C90.2315 179.083 91.3051 179.76 92.2898 180.494C92.5778 180.709 92.8716 180.934 93.2131 181.02C93.5546 181.105 93.9613 181.013 94.1545 180.698C94.3456 180.387 94.2689 179.954 94.0644 179.653C93.8599 179.352 93.5529 179.154 93.2537 178.966C92.0367 178.199 90.7504 177.432 89.3414 177.354C87.5801 177.256 85.943 178.243 84.4197 179.198C83.8019 179.585 83.0925 180.172 83.2233 180.927C83.6462 181.284 84.2756 181.188 84.7432 180.903ZM92.6755 173.568C92.9934 174.01 93.6161 173.536 93.9671 173.124C95.0484 171.855 96.6071 171.069 98.2068 170.987C99.8066 170.904 101.428 171.526 102.618 172.678C102.918 172.969 103.234 173.312 103.638 173.324C104.042 173.336 104.406 172.73 104.085 172.466C102.37 171.051 100.375 169.894 98.2173 169.741C96.0594 169.588 93.7338 170.628 92.7348 172.689C92.6009 172.965 92.4984 173.322 92.6755 173.568ZM111.755 173.181C112.039 173.051 112.248 172.788 112.466 172.553C114.127 170.758 116.939 170.357 118.978 171.624C119.488 171.941 120.255 172.29 120.551 171.744C120.798 171.288 120.357 170.757 119.938 170.483C117.196 168.697 113.287 169.378 111.21 172.002C110.999 172.27 110.796 172.636 110.941 172.951C111.079 173.248 111.47 173.31 111.755 173.181ZM113.27 173.35C113.153 173.455 113.035 173.574 112.986 173.73C112.847 174.166 113.34 174.574 113.768 174.538C114.196 174.501 114.559 174.206 114.947 174.009C115.893 173.53 117.03 173.644 117.99 174.09C118.37 174.266 118.738 174.494 119.147 174.56C119.556 174.626 120.033 174.48 120.22 174.083C118.593 171.917 115.259 171.565 113.27 173.35ZM87.5434 172.518C87.7863 172.64 88.1176 172.617 88.2738 172.383C88.4864 172.064 88.2587 171.63 88.0331 171.322C87.2695 170.279 86.448 169.252 85.3983 168.553C84.3487 167.853 83.0266 167.517 81.8576 167.945C81.7387 168.409 82.2761 168.724 82.699 168.883C84.3274 169.492 85.8052 170.56 86.9458 171.949C87.1232 172.165 87.3006 172.396 87.5434 172.518ZM101.933 173.682C100.012 172.366 97.3886 172.342 95.447 173.625C95.1096 173.848 94.7629 174.161 94.7367 174.586C94.7105 175.01 95.2472 175.404 95.5133 175.089C96.5859 173.819 98.5457 173.555 99.8766 174.502C100.53 174.967 101.468 174.904 102.063 174.355C102.343 174.323 102.171 173.845 101.933 173.682ZM115.912 180.806C113.182 180.608 110.641 182.333 108.659 184.361C108.803 184.719 109.295 184.624 109.629 184.469C111.886 183.42 114.143 182.37 116.4 181.321C116.57 181.08 116.193 180.826 115.912 180.806ZM89.9253 182.112C90.2611 182.316 90.59 182.594 90.976 182.595C91.362 182.595 91.7447 182.096 91.4999 181.775C90.7289 180.765 89.5171 180.162 88.3014 180.182C87.0858 180.202 85.8918 180.845 85.1499 181.88C85.2413 182.256 85.6697 182.429 86.0277 182.373C86.3857 182.317 86.701 182.1 87.033 181.945C87.9513 181.518 89.0548 181.582 89.9253 182.112ZM103.465 181.836C103.435 182.125 103.739 182.346 104.009 182.33C104.28 182.314 104.517 182.144 104.754 182.004C105.748 181.416 106.973 181.295 108.051 181.679C108.742 181.926 109.603 182.328 110.102 181.759C110.146 181.434 109.842 181.188 109.571 181.034C108.603 180.48 107.538 180.063 106.441 180.074C105.345 180.085 104.214 180.579 103.588 181.546C103.531 181.634 103.477 181.73 103.465 181.836ZM101.427 169.163C102.556 169.597 103.607 170.262 104.508 171.112C104.879 171.463 105.234 171.851 105.685 172.069C106.135 172.288 106.72 172.294 107.072 171.922C106.292 171.279 105.652 170.442 105.215 169.497C104.979 168.987 104.352 168.894 103.823 168.866C103.05 168.825 102.277 168.785 101.504 168.744C101.422 168.862 101.393 169.02 101.427 169.163ZM91.3451 172.078C91.7442 171.678 92.0387 171.173 92.4074 170.74C92.9792 170.069 93.7324 169.579 94.5506 169.344C94.9036 169.243 95.3677 169.049 95.3144 168.661C94.3143 168.474 93.1732 168.324 92.3845 169.01C91.2799 169.971 90.4041 171.234 89.8623 172.646C90.3955 172.772 90.946 172.479 91.3451 172.078ZM82.4552 171.592C83.172 172.094 83.8887 172.595 84.6054 173.097C84.9088 173.309 85.2962 173.527 85.6109 173.334C85.903 173.156 85.9477 172.696 85.7954 172.374C85.6432 172.052 85.3529 171.837 85.0741 171.635C84.4906 171.213 83.9071 170.791 83.3236 170.369C82.8349 170.016 82.0389 169.734 81.773 170.299C81.5439 170.786 82.0297 171.294 82.4552 171.592ZM97.5458 177.623C97.82 177.915 98.2042 178.231 98.5526 178.052C98.7115 177.97 98.8138 177.802 98.908 177.642C99.2187 177.115 99.5294 176.587 99.8401 176.06C99.0266 175.088 97.4297 175.062 96.5892 176.007C96.5247 176.079 96.4617 176.162 96.4502 176.262C96.4319 176.42 96.5455 176.556 96.6506 176.668C96.949 176.986 97.2474 177.305 97.5458 177.623ZM85.0038 185.166C85.5867 185.386 86.2746 185.451 86.7886 185.083C86.0148 184.127 85.1078 183.295 84.1071 182.624C83.8233 182.434 83.5032 182.25 83.172 182.301C82.8407 182.352 82.5475 182.756 82.7079 183.072C83.2002 184.04 84.0348 184.801 85.0038 185.166ZM116.982 177.481C117.257 177.123 117.533 176.766 117.808 176.408C117.903 176.285 118.003 176.146 117.998 175.986C117.99 175.784 117.817 175.638 117.653 175.538C117.08 175.192 116.404 175.048 115.752 175.132C115.503 175.165 115.243 175.238 115.068 175.431C114.893 175.624 114.842 175.967 115.018 176.159C115.418 176.594 115.818 177.029 116.218 177.464C116.349 177.607 116.514 177.761 116.696 177.719C116.816 177.69 116.904 177.583 116.982 177.481ZM88.2395 169.756C88.4866 170.042 88.797 170.335 89.1587 170.303C89.9346 170.234 90.1847 168.796 90.9597 168.874C91.1678 168.506 90.5999 168.211 90.1988 168.204C89.1607 168.187 88.1227 168.169 87.0846 168.151C87.4235 168.722 87.8105 169.26 88.2395 169.756ZM94.6507 185.43C96.81 185.42 98.9694 185.41 101.129 185.4C100.939 184.941 100.433 184.755 99.9757 184.653C98.4773 184.32 96.906 184.371 95.429 184.801C95.0983 184.897 94.7208 185.07 94.6507 185.43ZM107.984 182.989C107.269 183.024 106.555 183.058 105.84 183.093C105.61 183.104 105.314 183.176 105.285 183.422C105.272 183.532 105.324 183.638 105.374 183.735C105.562 184.104 105.764 184.487 106.09 184.719C106.417 184.951 106.908 184.974 107.163 184.654C107.357 184.408 107.373 184.025 107.605 183.821C107.755 183.689 107.962 183.663 108.128 183.556C108.293 183.448 108.399 183.169 108.245 183.042C108.173 182.983 108.074 182.985 107.984 182.989ZM89.484 184.273C89.6749 183.953 89.4944 183.5 89.1969 183.294C88.8995 183.088 88.5278 183.064 88.1744 183.045C87.7842 183.024 87.2703 183.101 87.2003 183.514C87.1669 183.711 87.2602 183.904 87.3503 184.079C87.6151 184.593 88.0047 185.181 88.5486 185.123C88.9701 185.079 89.2555 184.656 89.484 184.273ZM117.708 179.67C118.028 179.699 118.316 179.465 118.541 179.218C119.227 178.465 119.663 177.454 119.755 176.404C119.528 176.248 119.25 176.49 119.076 176.711C118.492 177.453 117.908 178.195 117.324 178.937C117.116 179.201 117.387 179.642 117.708 179.67ZM81.9679 174.413C82.2937 174.851 82.9221 174.988 83.3812 174.722C83.6163 174.585 83.8148 174.314 83.768 174.031C83.7264 173.78 83.5132 173.609 83.3165 173.465C83.0324 173.257 82.7483 173.049 82.4642 172.841C82.3775 172.777 82.2777 172.711 82.1749 172.734C82.104 172.749 82.047 172.805 81.9994 172.864C81.6561 173.286 81.6421 173.975 81.9679 174.413ZM107.2 169.79C107.541 170.097 108.047 169.78 108.385 169.469C108.753 169.132 109.12 168.794 109.488 168.457C109.28 168.244 108.947 168.292 108.666 168.355C107.848 168.536 107.03 168.718 106.212 168.899C106.541 169.196 106.871 169.493 107.2 169.79ZM120.045 165.479C120.251 165.755 120.685 165.696 120.921 165.45C121.157 165.204 121.244 164.84 121.312 164.494C121.328 164.411 121.343 164.321 121.311 164.244C121.228 164.047 120.956 164.106 120.774 164.197C120.284 164.443 119.707 165.026 120.045 165.479Z" fill="white"/>
<path id="Shape_2" fill-rule="evenodd" clip-rule="evenodd" d="M55.9416 136.001C57.9614 125.27 64.8674 116.286 73.4424 110.368C69.1068 116.753 55.8021 127.223 60.0785 138.887C66.9142 157.532 93.5062 160.465 92.5811 160.667C76.8531 164.112 54.4377 143.991 55.9416 136.001Z" fill="#E7EAEE"/>
<g id="Food">
<path id="Combined Shape" fill-rule="evenodd" clip-rule="evenodd" d="M106.25 42.8744C105.156 43.0169 104.192 43.9583 103.956 45.1147C112.813 39.9991 123.511 38.6839 133.215 41.5177C133.223 46.7748 129.79 51.8312 125.128 53.429L115.02 56.893C117.686 57.2107 120.426 56.7907 122.903 55.6845C123.784 57.1742 125.234 58.2623 126.838 58.6374L123.731 59.3694C124.189 60.8688 125.125 62.1947 126.345 63.0739C125.31 62.6931 124.158 62.6892 123.12 63.063L123.816 65.7767C119.234 65.0941 114.339 65.7642 110.48 68.5036C106.622 71.243 104.03 76.2787 104.726 81.1908C105.54 75.8502 108.946 71.0452 113.523 68.7836C118.1 66.5219 123.713 66.8693 128.018 69.6806L125.098 72.004C126.219 72.4832 127.548 72.3608 128.577 71.6835C130.825 72.7516 130.202 77.1691 127.761 77.4751L130.99 77.7163C131.55 83.6146 128.158 89.6973 123.053 91.9503C117.948 94.2034 111.555 92.439 108.093 87.8214C103.796 90.1789 104.097 97.3237 107.16 101.329C109.298 104.125 112.242 105.942 115.191 107.761C116.466 108.548 117.743 109.336 118.955 110.203C125.397 114.812 130.198 121.999 132.201 130.03C128.703 132.546 125.592 135.68 123.03 139.268C126.82 139.078 130.531 137.417 133.326 134.661L133.923 140.862C130.855 141.877 128.098 143.949 126.158 146.697C128.893 146.996 131.713 146.31 134.06 144.774C133.219 151.91 131.702 158.952 129.539 165.759L122.486 165.697C124.16 160.73 125.854 155.386 124.622 150.272C123.389 145.159 117.86 140.938 113.509 143.398C118.514 139.064 122.303 133.132 124.268 126.557L111.665 144.033L101.994 144.121C101.689 139.226 101.397 134.209 102.692 129.505C103.988 124.8 107.222 120.397 111.678 119.324C112.162 119.207 112.677 119.113 113.198 119.017C115.376 118.616 117.673 118.193 118.312 116.079C111.088 115.627 103.847 120.595 101.19 127.826C99.2964 132.978 99.6301 138.72 99.9928 144.246C93.3145 143.211 86.4763 143.378 79.8484 144.736C78.6978 140.523 77.5046 136.215 75.091 132.671C72.6775 129.128 68.7592 126.44 64.6922 126.878C71.242 127.923 74.4865 135.742 76.9563 142.342C79.4261 148.942 83.9096 156.481 90.5034 155.828C92.3813 155.642 92.9791 158.955 91.5399 160.264C90.1007 161.573 87.9621 161.324 86.1199 160.891C76.6302 158.66 67.7702 153.425 60.9342 146.011C59.6032 144.567 58.3161 142.988 57.7011 141.066C56.9423 138.696 57.2958 136.078 57.9483 133.671C61.2817 121.374 71.54 112.949 81.289 105.577C86.5339 101.611 86.3458 91.7822 80.9535 88.051C76.9619 91.9475 71.6397 94.672 66.2788 94.0363C60.9179 93.4007 55.8442 88.6855 55.6713 82.8946C57.3551 82.7352 59.0054 82.18 60.4729 81.279C59.0324 80.7292 57.409 80.7527 55.9829 81.344C55.5951 79.7833 55.8782 78.0455 56.7365 76.7192L59.793 76.3683C59.1786 75.622 58.3215 75.1108 57.407 74.9451C59.6128 70.9965 64.7326 69.9158 68.8355 71.2501C72.9384 72.5844 76.2612 75.7633 79.4402 78.8526C76.1254 71.0453 67.1369 68.5287 59.2889 66.9288L62.7135 64.7493C60.7344 64.1699 58.5509 64.4424 56.7481 65.4936C57.925 67.0599 59.5137 68.2651 61.2815 68.9327C58.4561 73.253 53.4692 75.8315 48.5634 75.5087C43.7402 75.1913 38.828 76.7777 34.9672 79.8995C41.2412 77.1591 48.0952 75.9642 54.854 76.4326L53.7306 81.6613C49.829 82.445 46.1058 84.2346 42.9619 86.8374L53.5882 82.9823C54.653 88.8301 58.9588 93.8564 64.2955 95.4814C69.6321 97.1063 75.7527 95.2546 79.5156 90.8768C83.5093 91.7279 84.4675 97.9218 82.2844 101.614C80.5557 104.537 77.7283 106.358 74.9253 108.163C74.1884 108.638 73.4531 109.111 72.74 109.603C64.165 115.521 57.9614 125.27 55.9416 136.001C53.9218 146.733 56.1125 158.305 61.8738 167.336C52.358 171.205 46.0314 182.595 47.3807 193.428C47.4116 193.676 47.4459 193.926 47.4803 194.176C47.6839 195.658 47.8918 197.171 47.4236 198.563C46.8762 200.19 44.9103 201.396 43.6183 200.362C39.9325 197.414 35.6102 195.39 31.0909 194.497C28.4304 193.971 24.526 195.153 25.0928 197.994C25.2817 198.942 25.9762 199.665 26.6503 200.308C33.6447 206.987 42.1637 211.809 51.2462 214.231C53.3014 214.779 55.5845 215.178 57.4475 214.096C60.0997 212.556 60.5351 209.104 60.9725 205.635C61.4025 202.226 61.8343 198.801 64.3756 197.163C66.6704 195.685 69.4981 196.514 72.1486 197.291C72.5026 197.395 72.8535 197.498 73.1995 197.594C79.5019 199.349 86.0378 198.679 92.5764 198.009H92.5765C95.1576 197.745 97.7392 197.48 100.307 197.365C107.431 197.045 114.6 197.893 121.488 199.872C123.887 200.562 126.273 199.276 128.544 198.051C128.882 197.869 129.217 197.689 129.549 197.516C132.117 196.182 135.636 195.479 137.468 197.827C138.192 198.756 138.459 199.946 138.728 201.142C138.861 201.734 138.995 202.328 139.184 202.892C140.418 206.568 144.117 208.821 147.75 209.039C151.382 209.258 154.93 207.778 158.104 205.868C164.118 202.25 169.262 196.979 172.91 190.697C173.335 189.965 173.755 189.152 173.67 188.295C173.445 186.031 170.413 185.853 168.391 186.535C162.919 188.381 157.889 191.716 153.901 196.144C152.026 194.308 151.113 191.405 151.568 188.724C162.716 180.443 174.586 171.879 188.106 170.85C190.226 170.689 192.378 170.714 194.527 170.739C199.195 170.793 203.85 170.847 208.13 168.992C216.015 165.574 220.57 154.015 215.63 146.581C211.829 140.861 204.399 139.512 197.883 140.138C186.871 141.198 176.271 146.645 168.592 155.191C166.459 157.565 164.512 160.193 162.569 162.816C158.364 168.492 154.176 174.146 148.149 177.158C144.057 171.078 137.644 166.859 130.742 165.706C135.861 155.56 137.186 143.277 134.363 132.142C131.54 121.006 124.6 111.141 115.399 105.184C114.898 104.859 114.386 104.543 113.874 104.226C111.557 102.791 109.217 101.342 107.638 99.057C105.71 96.2673 105.519 91.6849 108.223 89.7785C111.819 95.0789 119.364 96.2235 124.7 93.0369C130.037 89.8502 133.076 83.1629 133.183 76.6054L146.986 76.228C142.346 74.5606 137.278 74.294 132.508 75.4666L130.854 70.629L141.807 69.0865C137.766 67.9933 133.436 68.1675 129.482 69.5823C128.584 67.6923 127.214 66.0639 125.555 64.9129C127.113 65.1027 128.731 64.6545 130.01 63.679L126.416 60.607C127.905 60.9008 129.521 59.8526 129.971 58.3004L124.22 55.8012L146.924 44.1301C145.956 44.1118 144.988 44.15 144.024 44.2446L146.959 42.16C142.478 42.7418 138.059 41.3869 133.644 40.0336C129.075 38.6328 124.512 37.2339 119.893 37.9867C118.078 38.2825 116.252 38.9027 114.436 39.5193C110.689 40.792 106.985 42.0496 103.519 40.4098C96.4645 37.0733 88.192 36.8289 80.9777 39.7439C80.3398 40.0017 79.6917 40.2833 79.0373 40.5677L79.0373 40.5677C75.4356 42.1329 71.6406 43.782 68.2762 42.0005C64.2272 39.8564 59.3168 41.1104 55.257 43.2308C53.8319 43.9751 52.4487 44.8219 51.0667 45.6679L51.0667 45.6679C48.5117 47.2319 45.9608 48.7935 43.1558 49.7014C49.4858 53.869 56.6542 56.5586 64.0232 57.5308C64.9283 58.282 64.6122 59.9523 63.7092 60.7066C62.8063 61.4609 61.5853 61.5566 60.4431 61.6221C60.7371 63.8082 63.3593 65.1927 65.1501 64.1074C64.3975 64.2576 64.3414 62.9443 64.6541 62.1937L66.6051 57.5099C68.1203 58.1076 70.0062 57.1486 70.5363 55.5108C66.784 55.996 62.8907 56.4679 59.2961 55.2139C55.7016 53.9599 52.4899 50.4616 52.6584 46.4057C60.6632 41.4235 71.4093 42.0981 78.8194 48.048C78.2472 46.2542 76.8409 44.7928 75.1529 44.2382C77.1018 42.1771 79.6889 40.8244 82.4012 40.4484C80.7899 41.8179 80.0515 44.2664 80.6091 46.3907L87.8438 39.2426C86.657 41.5282 85.9922 44.124 85.9237 46.74C88.6069 44.8564 90.7446 42.0893 91.9733 38.9091L95.1918 39.3945C93.2214 41.1829 92.1237 44.0245 92.3365 46.786C94.7888 45.1482 96.69 42.5795 97.6227 39.6439C100.645 40.1684 103.58 41.2673 106.25 42.8744ZM195.152 169.414C193.534 169.357 191.914 169.299 190.305 169.348C178.323 169.714 167.184 175.982 157.298 183.264C157.195 183.341 157.091 183.417 156.987 183.494L156.885 183.569L156.882 183.571L156.882 183.571C155.006 184.957 153.112 186.357 150.97 187.174L148.454 179.298C148.319 178.875 148.236 178.294 148.602 178.082C152.449 175.847 155.962 172.95 158.965 169.535C160.966 167.26 162.742 164.76 164.514 162.263C167.025 158.726 169.532 155.195 172.671 152.318C177.683 147.723 183.993 145.093 190.324 143.131C195.01 141.679 199.92 140.541 204.74 141.338C209.559 142.135 214.305 145.225 216.072 150.108C217.476 153.986 216.789 158.56 214.626 162.011C212.464 165.463 208.952 167.812 205.189 168.798C201.917 169.655 198.537 169.534 195.152 169.414ZM57.2925 186.1C57.5458 186.747 57.7057 187.611 57.1999 188.056C56.5485 188.629 55.6243 187.89 55.0769 187.203L50.4115 181.347C49.2945 184.466 48.7821 187.833 48.9163 191.171C48.9432 191.842 48.9941 192.522 49.0451 193.204C49.2401 195.812 49.4377 198.455 48.3133 200.716C47.8201 201.708 46.9809 202.619 45.9362 202.692C45.3441 202.733 44.7675 202.5 44.221 202.252C42.7231 201.572 41.2472 200.735 39.7716 199.899C35.9736 197.747 32.1784 195.597 28.0195 196.11C27.4515 196.18 26.7442 196.481 26.7664 197.094C26.7763 197.369 26.9432 197.605 27.1055 197.818C33.1018 205.685 42.4787 209.5 51.5557 212.38C53.0402 212.851 54.6049 213.31 56.1166 212.952C57.6283 212.594 59.0315 211.13 58.849 209.479C58.366 205.11 59.6403 200.549 62.283 197.188C63.338 195.846 64.6719 194.652 66.2727 194.295C68.2391 193.856 70.1608 194.726 72.0534 195.584L72.0538 195.584C72.5399 195.804 73.0241 196.023 73.5066 196.219C77.2062 197.722 81.3646 197.886 85.1568 196.678C83.6742 196.658 82.9621 194.748 82.6549 193.19C80.6641 183.095 79.6057 172.788 79.5003 162.47C79.4888 161.348 78.7562 160.356 77.8725 159.758C77.1245 159.252 76.2716 158.97 75.4235 158.69L75.4234 158.69L75.4229 158.69L75.4227 158.69C75.2691 158.639 75.1157 158.588 74.9631 158.536C71.8746 157.485 68.9643 155.833 66.4161 153.684C66.0951 153.413 65.779 153.134 65.4627 152.855L65.4623 152.854C64.487 151.993 63.511 151.131 62.3913 150.514C60.9085 149.697 59.0734 149.364 57.5872 150.174C57.2557 151.023 57.8552 152.009 58.6223 152.418C59.2033 152.729 59.8541 152.813 60.5034 152.897L60.5037 152.897L60.504 152.897C60.7118 152.924 60.9196 152.951 61.1248 152.985C62.1015 153.148 63.0522 153.49 63.9235 153.991C64.8389 154.518 65.7058 155.908 64.8901 156.598C64.5556 156.881 64.0866 156.861 63.6619 156.828L58.8714 156.45C60.0393 159.863 61.5282 163.149 63.3081 166.242C63.4679 166.52 63.6811 166.829 63.985 166.831C68.6784 166.877 73.9194 167.583 76.8937 171.483C77.4574 172.222 77.9198 173.291 77.4365 174.093C74.7102 170.557 70.4456 168.451 66.1719 168.53C61.8981 168.609 57.7038 170.872 55.0927 174.508C57.3974 176.165 59.2294 178.569 60.2855 181.324C60.6045 182.156 60.5458 183.517 59.7084 183.498L54.6796 176.883C54.4549 176.588 54.1849 176.267 53.8298 176.255C53.545 176.246 53.2941 176.442 53.0681 176.628C52.579 177.032 52.0714 177.46 51.816 178.063C51.5607 178.666 51.6557 179.497 52.1876 179.832C54.4546 181.263 56.2739 183.496 57.2925 186.1ZM114.625 196.451C117.854 193.557 118.908 188.792 119.775 184.371L122.953 168.173C122.987 168 123.026 167.816 123.142 167.69C123.295 167.524 123.534 167.506 123.752 167.499C129.544 167.311 135.711 167.904 140.377 171.597C138.473 172.611 136.809 174.139 135.581 176.002C135.236 176.524 134.948 177.31 135.392 177.738C135.558 177.898 135.79 177.955 136.013 177.972C137.125 178.057 138.141 177.311 138.954 176.491C139.129 176.314 139.301 176.131 139.473 175.948L139.474 175.948C140.1 175.282 140.73 174.613 141.525 174.222C142.539 173.724 143.947 173.864 144.507 174.9C142.698 175.889 141.209 177.535 140.339 179.504C140.112 180.017 139.925 180.61 140.108 181.142C140.292 181.674 141.014 181.986 141.368 181.565L144.862 177.423C145.031 177.222 145.265 177.003 145.502 177.095C145.629 177.145 145.713 177.275 145.786 177.398C147.637 180.519 148.373 184.152 149.112 187.801C149.545 189.938 149.978 192.081 150.638 194.128C151.166 195.769 152.187 197.612 153.803 197.613C154.696 197.614 155.486 197.024 156.193 196.438C156.948 195.811 157.7 195.154 158.455 194.494L158.456 194.493C162.009 191.387 165.642 188.211 170.116 187.831C170.822 187.771 171.727 187.938 171.892 188.677C171.988 189.106 171.773 189.538 171.559 189.915C168.233 195.762 163.245 200.373 157.734 203.824C154.913 205.591 151.819 207.108 148.553 207.136C145.287 207.163 141.829 205.369 140.595 202.121C140.343 201.458 140.189 200.759 140.035 200.06C139.858 199.252 139.68 198.444 139.351 197.695C138.504 195.766 136.628 194.408 134.645 194.29C132.757 194.178 131.021 195.081 129.289 195.982L129.288 195.983C128.68 196.299 128.072 196.616 127.458 196.888C123.381 198.694 118.587 198.531 114.625 196.451ZM93.0676 161.578C91.852 162.692 90.2168 163.137 88.6231 163.263C85.7517 163.489 82.8216 162.767 80.3291 161.219L81.3575 165.4C81.4018 165.58 81.4546 165.775 81.5939 165.886C81.7149 165.982 81.8751 165.994 82.0256 166.003L96.8027 166.837C98.957 166.958 101.114 167.08 103.271 167.013C109.319 166.825 115.322 165.129 120.674 162.096C120.983 161.921 121.297 161.735 121.52 161.446C121.785 161.101 121.889 160.649 121.978 160.213C122.728 156.519 122.857 152.682 122.359 148.94C122.236 148.021 122.066 147.078 121.585 146.307C121.104 145.535 120.239 144.972 119.39 145.145C110.693 146.924 101.816 146.375 92.9391 145.825C89.5935 145.618 86.2481 145.411 82.9125 145.329C82.317 145.314 81.6906 145.311 81.1675 145.617C80.6443 145.923 80.2842 146.65 80.5529 147.221C82.074 150.453 85.2168 152.516 88.4754 153.447C88.7094 153.514 88.9489 153.579 89.1913 153.645C91.2992 154.221 93.6206 154.856 94.386 156.963C94.9668 158.563 94.2831 160.463 93.0676 161.578ZM116.776 188.976C116.18 191.518 114.927 194.156 112.654 195.11C111.858 195.443 110.997 195.543 110.147 195.628C102.264 196.416 94.297 196.226 86.4546 195.063C85.9876 194.994 85.4953 194.909 85.1314 194.588C84.6882 194.196 84.5379 193.547 84.4217 192.943C84.0656 191.092 83.7897 189.223 83.5952 187.344C83.5608 187.011 83.6467 186.537 83.9574 186.563C88.9757 186.982 94.0084 187.202 99.0418 187.223C102.514 187.237 106.014 187.153 109.405 186.352C112.796 185.551 116.102 183.985 118.581 181.373C117.877 182.963 117.573 184.7 117.269 186.439C117.121 187.29 116.972 188.141 116.776 188.976ZM99.8225 178.417C99.5008 178.754 99.1547 179.153 99.1773 179.635C99.2 180.117 99.8728 180.476 100.105 180.063C101.371 177.81 103.574 176.189 105.988 175.735C108.402 175.281 110.987 176.002 112.891 177.659C113.088 177.831 113.28 178.014 113.471 178.196C113.923 178.625 114.374 179.055 114.907 179.352C115.18 179.504 115.648 179.508 115.659 179.178C115.663 179.069 115.605 178.971 115.548 178.881C114.181 176.716 112.136 175.054 109.826 174.229C107.8 173.506 105.452 173.461 103.641 174.673C102.983 175.113 102.422 175.699 101.866 176.28L99.8225 178.417ZM82.8058 177.186C84.5523 175.051 87.376 174.106 89.9987 174.478C92.6214 174.851 95.0203 176.438 96.763 178.577C97.07 178.953 97.371 179.495 97.1221 179.918C96.9137 180.273 96.4153 180.299 96.073 180.097C95.7743 179.922 95.561 179.625 95.3513 179.333C95.3206 179.291 95.29 179.248 95.2592 179.206C93.7167 177.098 91.1962 175.86 88.7028 175.987C86.2095 176.113 83.8087 177.6 82.4577 179.855C82.1058 179.526 82.0063 178.961 82.1122 178.474C82.2181 177.986 82.4979 177.562 82.8058 177.186ZM108.499 171.594C108.458 172.07 109.044 172.367 109.465 172.211C109.844 172.071 110.108 171.719 110.362 171.38C110.391 171.342 110.419 171.305 110.447 171.268C112.792 168.188 117.256 167.26 120.501 169.178C120.927 168.792 120.951 168.051 120.666 167.537C120.382 167.022 119.862 166.707 119.331 166.524C118.181 166.13 116.933 166.264 115.751 166.521C112.951 167.13 110.123 168.555 108.652 171.185C108.581 171.312 108.511 171.446 108.499 171.594ZM94.1396 182.444C95.2166 182.001 96.3427 181.674 97.4931 181.588C100.34 181.376 103.249 182.749 105.028 185.145C104.27 185.727 103.272 185.019 102.493 184.466L102.485 184.461C99.9992 182.697 96.6026 182.539 93.9841 184.066C93.7798 184.185 93.5737 184.315 93.3658 184.445C92.3863 185.061 91.3681 185.702 90.314 185.381C91.1853 183.948 92.651 183.056 94.1396 182.444ZM103.467 179.906L103.467 179.906L103.468 179.906L103.468 179.906L103.468 179.906L103.468 179.906L103.468 179.906L103.468 179.906L103.468 179.906L103.468 179.905L103.468 179.905L103.469 179.905L103.469 179.905L103.469 179.905L103.469 179.905L103.469 179.905L103.469 179.905L103.469 179.905L103.469 179.905L103.469 179.905L103.47 179.904L103.47 179.904L103.47 179.904L103.47 179.904L103.47 179.904L103.47 179.904L103.47 179.904C103.852 179.59 104.234 179.276 104.656 179.031C105.848 178.338 107.333 178.258 108.584 178.819C108.947 178.982 109.288 179.195 109.629 179.407L109.63 179.407L109.63 179.408L109.63 179.408L109.63 179.408L109.63 179.408L109.63 179.408L109.631 179.408L109.631 179.408L109.631 179.408L109.631 179.408L109.631 179.408L109.631 179.408L109.631 179.409L109.632 179.409L109.632 179.409L109.632 179.409L109.632 179.409L109.632 179.409L109.632 179.409L109.633 179.409L109.633 179.409L109.633 179.409L109.633 179.409L109.633 179.41L109.633 179.41C109.928 179.593 110.223 179.777 110.533 179.93C111.202 180.259 111.999 180.43 112.666 180.095C112.74 180.057 112.816 180.008 112.848 179.927C112.898 179.796 112.808 179.654 112.721 179.546C111.229 177.717 108.892 176.726 106.639 176.967C104.386 177.209 102.277 178.677 101.151 180.787C101.386 181.119 101.875 181.008 102.22 180.815C102.666 180.566 103.067 180.236 103.467 179.906ZM85.5446 180.241C85.2906 180.482 85.037 180.723 84.7432 180.903C84.2756 181.188 83.6462 181.284 83.2233 180.927C83.0925 180.172 83.8019 179.585 84.4197 179.198C85.943 178.243 87.5801 177.256 89.3414 177.354C90.7504 177.432 92.0367 178.199 93.2537 178.966C93.5528 179.154 93.8599 179.352 94.0644 179.653C94.2689 179.954 94.3456 180.387 94.1545 180.698C93.9613 181.013 93.5546 181.105 93.2131 181.02C92.8844 180.938 92.6 180.725 92.3222 180.518L92.3221 180.518L92.322 180.518L92.2898 180.494C91.3051 179.76 90.2314 179.083 89.0408 178.934C87.9724 178.801 86.8588 179.124 86.004 179.825C85.8453 179.955 85.6952 180.098 85.5452 180.24L85.5449 180.241L85.5446 180.241ZM92.6755 173.568C92.9934 174.01 93.6161 173.536 93.9671 173.124C95.0484 171.855 96.6071 171.069 98.2068 170.987C99.8066 170.904 101.428 171.526 102.618 172.678C102.641 172.701 102.665 172.725 102.689 172.748L102.691 172.749C102.969 173.022 103.267 173.313 103.638 173.324C104.042 173.336 104.406 172.73 104.085 172.466C102.37 171.051 100.375 169.894 98.2173 169.741C96.0594 169.588 93.7338 170.628 92.7348 172.689C92.6009 172.965 92.4984 173.322 92.6755 173.568ZM112.37 172.659C112.185 172.863 111.997 173.071 111.755 173.181C111.47 173.31 111.079 173.248 110.941 172.951C110.796 172.636 110.999 172.27 111.21 172.002C113.287 169.378 117.196 168.697 119.937 170.483C120.357 170.757 120.798 171.288 120.551 171.744C120.255 172.29 119.488 171.941 118.978 171.624C116.939 170.357 114.127 170.758 112.466 172.553C112.434 172.588 112.402 172.623 112.37 172.659ZM113.27 173.35C113.153 173.455 113.035 173.574 112.986 173.73C112.847 174.166 113.34 174.574 113.768 174.538C114.077 174.511 114.353 174.349 114.629 174.187L114.629 174.187C114.735 174.125 114.84 174.064 114.947 174.009C115.893 173.53 117.03 173.644 117.99 174.09C118.081 174.132 118.171 174.177 118.262 174.222C118.548 174.366 118.836 174.509 119.147 174.56C119.556 174.626 120.033 174.48 120.22 174.083C118.593 171.917 115.259 171.565 113.27 173.35ZM88.2738 172.383C88.1176 172.617 87.7863 172.64 87.5434 172.518C87.3178 172.404 87.1487 172.197 86.9835 171.995L86.9458 171.949C85.8052 170.56 84.3274 169.492 82.699 168.883C82.2761 168.724 81.7387 168.409 81.8576 167.945C83.0266 167.517 84.3487 167.853 85.3983 168.553C86.448 169.252 87.2695 170.279 88.0331 171.322C88.2587 171.63 88.4863 172.064 88.2738 172.383ZM101.933 173.682C100.012 172.366 97.3886 172.342 95.447 173.625C95.1096 173.848 94.7629 174.161 94.7367 174.586C94.7105 175.01 95.2472 175.404 95.5133 175.089C96.5859 173.819 98.5457 173.555 99.8766 174.502C100.53 174.967 101.468 174.904 102.063 174.355C102.343 174.323 102.171 173.845 101.933 173.682ZM108.659 184.361C110.641 182.333 113.182 180.608 115.912 180.806C116.193 180.826 116.57 181.08 116.4 181.321L109.629 184.469C109.295 184.624 108.803 184.719 108.659 184.361ZM89.9253 182.112C89.992 182.152 90.0583 182.196 90.1249 182.24C90.3939 182.416 90.6666 182.595 90.976 182.595C91.362 182.595 91.7447 182.096 91.4999 181.775C90.7289 180.765 89.5171 180.162 88.3014 180.182C87.0858 180.202 85.8918 180.845 85.1499 181.88C85.2413 182.256 85.6697 182.429 86.0277 182.373C86.2857 182.332 86.5216 182.208 86.7575 182.085C86.8489 182.037 86.9403 181.989 87.033 181.945C87.9513 181.518 89.0548 181.582 89.9253 182.112ZM104.009 182.33C103.739 182.346 103.435 182.125 103.465 181.836C103.477 181.73 103.53 181.634 103.588 181.546C104.214 180.579 105.345 180.085 106.441 180.074C107.538 180.063 108.603 180.48 109.571 181.034C109.842 181.188 110.146 181.434 110.102 181.759C109.653 182.272 108.91 181.997 108.263 181.757C108.191 181.73 108.12 181.704 108.051 181.679C106.973 181.295 105.748 181.416 104.754 182.004L104.732 182.017L104.7 182.036L104.651 182.066C104.448 182.19 104.24 182.316 104.009 182.33ZM101.427 169.163C102.556 169.597 103.607 170.262 104.508 171.112C104.57 171.171 104.632 171.231 104.694 171.291L104.695 171.292L104.695 171.292C105.002 171.589 105.311 171.888 105.685 172.069C106.135 172.288 106.72 172.294 107.072 171.922C106.292 171.279 105.652 170.442 105.215 169.497C104.979 168.987 104.352 168.894 103.823 168.866L101.504 168.744C101.422 168.862 101.393 169.02 101.427 169.163ZM91.9767 171.3C91.7781 171.572 91.5797 171.843 91.3451 172.078C90.946 172.479 90.3955 172.772 89.8623 172.646C90.4041 171.234 91.2799 169.971 92.3845 169.01C93.1732 168.324 94.3143 168.474 95.3144 168.661C95.3677 169.049 94.9036 169.243 94.5506 169.344C93.7323 169.579 92.9792 170.069 92.4074 170.74C92.2557 170.918 92.1166 171.109 91.9776 171.299L91.977 171.3L91.9769 171.3L91.9768 171.3L91.9767 171.3ZM82.4553 171.592L84.6054 173.097C84.9088 173.309 85.2962 173.527 85.6109 173.334C85.903 173.156 85.9477 172.696 85.7955 172.374C85.6432 172.052 85.3529 171.837 85.0742 171.635L83.3236 170.369C82.8349 170.016 82.0389 169.734 81.773 170.299C81.5439 170.786 82.0297 171.294 82.4553 171.592ZM98.5526 178.052C98.2042 178.231 97.82 177.915 97.5457 177.623L96.6506 176.668C96.5455 176.556 96.4319 176.42 96.4502 176.262C96.4617 176.162 96.5247 176.079 96.5892 176.007C97.4297 175.062 99.0266 175.088 99.8401 176.06L98.908 177.642C98.8138 177.802 98.7115 177.97 98.5526 178.052ZM85.0038 185.166C85.5867 185.386 86.2746 185.451 86.7886 185.083C86.0148 184.127 85.1078 183.295 84.1071 182.624C83.8233 182.434 83.5032 182.25 83.172 182.301C82.8407 182.352 82.5475 182.756 82.7079 183.072C83.2002 184.04 84.0348 184.801 85.0038 185.166ZM117.808 176.408L116.982 177.481C116.904 177.583 116.816 177.69 116.696 177.719C116.514 177.761 116.349 177.607 116.218 177.464L115.018 176.159C114.842 175.967 114.893 175.624 115.068 175.431C115.243 175.238 115.503 175.165 115.752 175.132C116.404 175.048 117.08 175.192 117.653 175.538C117.817 175.638 117.99 175.784 117.998 175.986C118.003 176.146 117.903 176.285 117.808 176.408ZM88.2395 169.756C88.4866 170.042 88.797 170.335 89.1587 170.303C89.5336 170.269 89.7857 169.916 90.0336 169.569C90.2988 169.198 90.5592 168.834 90.9597 168.874C91.1678 168.506 90.5999 168.211 90.1988 168.204L87.0846 168.151C87.4234 168.722 87.8105 169.26 88.2395 169.756ZM101.129 185.4L94.6507 185.43C94.7208 185.07 95.0983 184.897 95.429 184.801C96.906 184.371 98.4773 184.32 99.9757 184.653C100.433 184.755 100.939 184.941 101.129 185.4ZM107.984 182.989L105.84 183.093C105.61 183.104 105.314 183.176 105.285 183.422C105.272 183.532 105.324 183.638 105.374 183.735C105.562 184.104 105.764 184.487 106.09 184.719C106.417 184.951 106.908 184.974 107.163 184.654C107.25 184.544 107.301 184.406 107.352 184.269C107.415 184.101 107.477 183.934 107.605 183.821C107.69 183.746 107.793 183.706 107.897 183.665L107.897 183.665L107.897 183.665C107.977 183.634 108.056 183.602 108.128 183.556C108.293 183.448 108.399 183.169 108.245 183.042C108.173 182.983 108.074 182.985 107.984 182.989ZM89.1969 183.294C89.4944 183.5 89.6749 183.953 89.484 184.273C89.2555 184.656 88.9701 185.079 88.5486 185.123C88.0047 185.181 87.6151 184.593 87.3503 184.079C87.2602 183.904 87.1669 183.711 87.2003 183.514C87.2703 183.101 87.7842 183.024 88.1744 183.045C88.5278 183.064 88.8995 183.088 89.1969 183.294ZM117.708 179.67C118.028 179.699 118.316 179.465 118.541 179.218C119.227 178.465 119.663 177.454 119.755 176.404C119.528 176.248 119.25 176.49 119.076 176.711L117.324 178.937C117.116 179.201 117.387 179.642 117.708 179.67ZM83.3812 174.722C82.9221 174.988 82.2937 174.851 81.9679 174.413C81.6421 173.975 81.6561 173.286 81.9994 172.864C82.047 172.805 82.104 172.749 82.1749 172.734C82.2777 172.711 82.3775 172.777 82.4642 172.841L83.3165 173.465C83.5132 173.609 83.7264 173.78 83.768 174.031C83.8148 174.314 83.6163 174.585 83.3812 174.722ZM107.2 169.79C107.541 170.097 108.047 169.78 108.385 169.469L109.488 168.457C109.28 168.244 108.947 168.292 108.666 168.355L106.212 168.899L107.2 169.79ZM57.5893 146.604C57.3387 146.365 57.2745 145.973 57.267 145.613C57.2585 145.207 57.3028 144.799 57.3983 144.406L59.0248 146.681C59.1218 146.816 59.2015 147.05 59.0581 147.124C58.8547 146.978 58.6047 146.936 58.3563 146.895C58.0753 146.848 57.7963 146.802 57.5893 146.604ZM120.045 165.479C120.251 165.755 120.685 165.696 120.921 165.45C121.157 165.204 121.244 164.84 121.312 164.494C121.328 164.411 121.343 164.321 121.311 164.244C121.228 164.047 120.956 164.106 120.774 164.197C120.284 164.443 119.707 165.026 120.045 165.479ZM101.639 64.9092C101.838 64.3751 102.301 64.0144 102.758 63.7133C104.135 62.8047 105.664 62.163 107.25 61.8284C107.63 61.7484 108.082 61.7093 108.345 62.0135C108.641 62.3556 108.493 62.9474 108.164 63.2533C107.871 63.5258 107.486 63.6376 107.108 63.747L107.043 63.7658L106.97 63.7873C105.702 64.1646 104.509 64.8307 103.493 65.7289C103.102 66.0742 102.639 66.481 102.151 66.3355C101.635 66.1814 101.44 65.4432 101.639 64.9092ZM73.1125 65.034C72.7443 64.8199 72.4957 64.2855 72.7248 63.9091C72.8581 63.6901 73.1065 63.5903 73.3426 63.5259C75.2546 63.0046 77.2342 63.925 78.9636 64.9443C79.353 65.1738 79.7537 65.4237 79.9991 65.8213C80.2446 66.2189 80.2804 66.808 79.9602 67.1385C79.4242 67.6917 78.5745 67.1227 77.9694 66.659C76.9099 65.847 75.6367 65.3603 74.3378 65.2708C74.2798 65.2668 74.2214 65.2634 74.1629 65.2601C73.7994 65.2394 73.4296 65.2184 73.1125 65.034ZM93.1566 94.4825L91.8989 90.6292C90.7795 91.497 89.9427 92.7772 89.5629 94.2029C89.2192 93.9028 89.2065 93.3952 89.1941 92.8967V92.8966C89.1903 92.7476 89.1866 92.5994 89.1741 92.4579C89.0998 91.6179 88.6087 90.8336 87.9124 90.443C87.2162 90.0524 86.3364 90.0677 85.6522 90.4823C85.8337 90.9089 86.2612 91.0443 86.7014 91.1837C86.9936 91.2763 87.2914 91.3706 87.5264 91.5531C88.0226 91.9386 88.1648 92.665 88.1725 93.3229C88.1744 93.4877 88.1704 93.6538 88.1665 93.8199V93.8201V93.8203C88.1547 94.3172 88.1429 94.8149 88.2874 95.2828C88.3341 95.4338 88.4002 95.5844 88.5141 95.6862C88.8367 95.9745 89.3252 95.735 89.6519 95.452C90.39 94.8128 90.9704 93.9654 91.3188 93.0182C91.626 93.3479 91.7395 93.811 91.8522 94.2705C91.8852 94.4054 91.9182 94.54 91.956 94.6708C92.1226 95.2472 92.5208 95.8632 93.082 95.8353C93.456 95.8166 93.7574 95.5142 94.0223 95.23L95.5439 93.5971C95.7272 93.4003 95.9261 93.1501 95.8671 92.879C95.8104 92.6187 95.5233 92.4793 95.2769 92.5167C95.0305 92.5541 94.8198 92.7208 94.627 92.8898C94.0866 93.3633 93.5929 93.8982 93.1566 94.4825ZM89.6809 79.0259C89.762 78.3197 89.8067 77.4969 89.3236 77.0099C88.4224 76.1012 87.633 75.0645 86.9826 73.9354C86.699 73.4429 86.4327 72.8676 86.5679 72.307C86.7721 71.4603 87.7302 71.1542 88.5384 71.0484C89.8315 70.8793 91.1404 70.8506 92.4389 70.9629C92.9968 71.0111 93.5882 71.1011 94.0152 71.4899C94.4422 71.8787 94.5963 72.667 94.1842 73.074C92.164 75.0688 90.981 78.0075 91.0117 80.955C91.7607 81.4774 92.5221 82.006 93.3755 82.2885C94.2289 82.571 95.2015 82.5803 95.9713 82.094C96.2955 81.8892 96.5674 81.609 96.8399 81.3283C97.0281 81.1344 97.2165 80.9402 97.4225 80.7705C97.9269 80.3549 98.6491 80.0974 99.1896 80.4569L97.1331 82.4909C96.3135 83.3015 95.2957 84.1734 94.211 83.9005C93.8518 83.8101 93.5363 83.6014 93.2198 83.3919L93.2197 83.3919C93.0313 83.2672 92.8426 83.1423 92.6439 83.0419C91.5817 82.5049 90.3355 82.7055 89.1877 82.9702C89.1178 82.9863 89.0478 83.0026 88.9775 83.019C87.8943 83.2711 86.7734 83.5321 85.7102 83.2187C84.578 82.8851 83.585 81.621 83.9393 80.4187C84.652 81.5392 85.8929 82.2494 87.1561 82.2598C87.6413 82.2638 88.1414 82.1641 88.5433 81.8722C89.3659 81.2748 89.5592 80.0845 89.6809 79.0259Z" fill="#00160A"/>
</g>
</g>
</g>
</svg>
