<svg width="50" height="45" viewBox="0 0 50 45" fill="none" xmlns="http://www.w3.org/2000/svg">
<path d="M18.8674 41.0673C19.9945 41.0673 20.9082 40.2418 20.9082 39.2234C20.9082 38.205 19.9945 37.3794 18.8674 37.3794C17.7402 37.3794 16.8265 38.205 16.8265 39.2234C16.8265 40.2418 17.7402 41.0673 18.8674 41.0673Z" stroke="#AC0D0D" stroke-width="2" stroke-linecap="round" stroke-linejoin="round"/>
<path d="M41.3163 41.0673C42.4434 41.0673 43.3571 40.2418 43.3571 39.2234C43.3571 38.205 42.4434 37.3794 41.3163 37.3794C40.1892 37.3794 39.2755 38.205 39.2755 39.2234C39.2755 40.2418 40.1892 41.0673 41.3163 41.0673Z" stroke="#AC0D0D" stroke-width="2" stroke-linecap="round" stroke-linejoin="round"/>
<path d="M2.54083 2.34399H10.7041L16.1735 27.0348C16.3601 27.8837 16.8713 28.6463 17.6175 29.1891C18.3637 29.7318 19.2974 30.0202 20.2551 30.0036H40.0919C41.0496 30.0202 41.9833 29.7318 42.7295 29.1891C43.4757 28.6463 43.9869 27.8837 44.1735 27.0348L47.4388 11.5639H12.7449" stroke="#AC0D0D" stroke-width="2" stroke-linecap="round" stroke-linejoin="round"/>
</svg>
